<svg width="152" height="74" viewBox="0 0 152 74" fill="none" xmlns="http://www.w3.org/2000/svg">
<g clip-path="url(#clip0_166_1739)">
<path d="M151.795 23.889C151.549 22.0017 151.016 20.2989 150.206 18.8014C149.386 17.2936 148.228 16.1037 146.711 15.2011C145.193 14.3087 143.277 13.8266 140.939 13.7445C138.069 13.6932 135.547 14.2369 133.384 15.3754C131.693 16.2678 130.217 17.4269 128.936 18.8322C128.474 16.4217 126.363 14.5651 123.769 14.5651C121.176 14.5651 119.023 16.4114 118.582 18.9347L112.042 56.6201H123L128.208 26.5764C128.3 26.4431 128.382 26.3097 128.474 26.1866C129.305 25.0481 130.319 24.1352 131.529 23.4685C132.728 22.7915 134.164 22.4838 135.824 22.535C137.321 22.5658 138.469 22.8838 139.258 23.5095C140.048 24.1352 140.56 24.9763 140.796 26.0328C141.032 27.0995 141.073 28.3099 140.909 29.6844L136.367 56.6201H147.356L151.867 29.7972C152.072 27.7458 152.051 25.7764 151.805 23.889H151.795Z" fill="#1C2544"/>
<path d="M48.9172 56.6101H59.8651L66.1591 20.8634C66.7229 17.5708 64.2012 14.5654 60.8594 14.5654C58.2455 14.5654 56.0108 16.4425 55.5597 19.0274L48.9069 56.6101H48.9172Z" fill="#1C2544"/>
<path d="M73.4578 14.5859C71.3256 14.5859 69.5112 16.1143 69.1422 18.2068C68.6706 20.8942 70.731 23.3559 73.4578 23.3559H87.2247L65.2263 47.6658C64.1705 48.8351 63.4632 50.2814 63.1864 51.8405L62.3561 56.6101H96.2865L97.8036 47.8709H77.9477L101.084 22.2789C102.068 21.1814 102.734 19.8377 102.991 18.3811L103.021 18.1863C103.349 16.2989 101.904 14.5757 99.9973 14.5757H73.4578V14.5859Z" fill="#1C2544"/>
<path d="M98.6954 56.6101H109.643L115.968 20.8429C116.532 17.5503 114.01 14.5449 110.668 14.5449C108.054 14.5449 105.82 16.422 105.369 19.0069L98.6954 56.6101Z" fill="#1C2544"/>
<path d="M32.9873 24.7402H5.57648L0 56.6097H32.9873C41.7826 56.6097 48.9172 49.4706 48.9172 40.6698C48.9172 31.8691 41.7826 24.73 32.9873 24.73V24.7402Z" fill="#1C2544"/>
<path d="M27.7286 0H15.2943C12.2293 0 9.61533 2.19506 9.08228 5.21071L4.35663 31.8695H28.2617C37.1594 31.8695 44.3453 24.5765 44.1813 15.6321C44.0173 6.68776 36.4931 0 27.7286 0Z" fill="#87C76C"/>
<path d="M40.2039 26.4737C37.2722 29.7971 33.0078 31.8793 28.2514 31.8793H4.35663L5.61749 24.7402H32.9873C35.591 24.7402 38.0513 25.3557 40.2039 26.4737Z" fill="#419A59"/>
<path d="M63.0736 12.5755C66.5441 12.5755 69.3574 9.76035 69.3574 6.28773C69.3574 2.81511 66.5441 0 63.0736 0C59.6032 0 56.7899 2.81511 56.7899 6.28773C56.7899 9.76035 59.6032 12.5755 63.0736 12.5755Z" fill="#87C76C"/>
<path d="M112.821 12.5755C116.292 12.5755 119.105 9.76035 119.105 6.28773C119.105 2.81511 116.292 0 112.821 0C109.351 0 106.537 2.81511 106.537 6.28773C106.537 9.76035 109.351 12.5755 112.821 12.5755Z" fill="#87C76C"/>
<path d="M62.4791 63.3389H66.7025C67.9531 63.3389 68.9782 63.585 69.7777 64.0774C70.5773 64.5697 70.9771 65.4108 70.9771 66.611C70.9771 67.8111 70.5876 68.5906 69.8085 69.1445C69.0294 69.6984 67.9838 69.9753 66.6717 69.9753H64.5908V73.6064H62.4791V63.3491V63.3389ZM68.0659 67.8521C68.3734 67.77 68.5886 67.6367 68.7014 67.4418C68.8142 67.2469 68.8654 66.9802 68.8654 66.6315C68.8654 66.2827 68.8039 66.016 68.7014 65.8417C68.5886 65.6673 68.3734 65.5339 68.0659 65.4621C67.7481 65.3801 67.2868 65.3493 66.6615 65.3493H64.5908V67.9854H66.6717C67.2868 67.9854 67.7481 67.9444 68.0659 67.8623V67.8521Z" fill="#87C76C"/>
<path d="M74.6674 73.1244C73.8576 72.7039 73.222 72.0884 72.7812 71.2884C72.3302 70.4883 72.1047 69.5446 72.1047 68.4471C72.1047 67.3496 72.3302 66.4059 72.7812 65.5956C73.2323 64.7852 73.8678 64.1698 74.6776 63.7492C75.4875 63.3287 76.4305 63.1133 77.4864 63.1133C78.5422 63.1133 79.5058 63.3287 80.3259 63.7492C81.1357 64.1698 81.7713 64.7852 82.2223 65.5853C82.6733 66.3854 82.8989 67.329 82.8989 68.4163C82.8989 69.5036 82.6733 70.478 82.2325 71.2781C81.7918 72.0782 81.1562 72.6936 80.3464 73.1142C79.5263 73.5347 78.5832 73.7501 77.4966 73.7501C76.41 73.7501 75.4977 73.5347 74.6879 73.1142L74.6674 73.1244ZM79.9364 70.9294C80.4694 70.3755 80.7359 69.5549 80.7359 68.4573C80.7359 66.2315 79.6493 65.1135 77.4864 65.1135C76.3998 65.1135 75.59 65.3904 75.0569 65.9443C74.5239 66.4982 74.2471 67.3393 74.2471 68.4471C74.2471 69.5549 74.5136 70.3755 75.0467 70.9294C75.5797 71.473 76.3895 71.7499 77.4864 71.7499C78.5832 71.7499 79.4033 71.473 79.9364 70.9191V70.9294Z" fill="#87C76C"/>
<path d="M84.2827 73.5757V63.3389H88.4446C89.6644 63.3389 90.6793 63.5748 91.4891 64.0569C92.2989 64.539 92.6987 65.339 92.6987 66.4571C92.6987 67.0725 92.5654 67.6059 92.2886 68.0572C92.0119 68.5086 91.6121 68.8676 91.0688 69.1445L93.57 73.5962H91.1508L88.9981 69.6574C88.8751 69.6779 88.6803 69.6881 88.4138 69.6881H86.3944V73.6167L84.2827 73.5757ZM89.8182 67.5751C90.1155 67.5033 90.3102 67.3802 90.4127 67.2059C90.5152 67.0315 90.5665 66.7853 90.5665 66.4674C90.5665 66.1699 90.505 65.9545 90.4025 65.7904C90.3 65.6262 90.0847 65.5237 89.7772 65.4416C89.4697 65.3698 89.0186 65.3288 88.4241 65.3288H86.4046V67.6777H88.5163C89.1006 67.6777 89.5414 67.6367 89.8387 67.5649L89.8182 67.5751Z" fill="#87C76C"/>
<path d="M97.5986 65.3698H93.939V63.3491H103.39V65.3698H99.7103V73.6064H97.5986V65.3698Z" fill="#87C76C"/>
<path d="M105.953 72.6628C105.184 71.9345 104.795 70.837 104.774 69.3804V63.3389H106.886V69.4112C106.886 69.9959 106.958 70.4574 107.111 70.7959C107.265 71.1344 107.511 71.3806 107.86 71.5242C108.208 71.6781 108.69 71.7499 109.305 71.7499C109.92 71.7499 110.412 71.6781 110.761 71.5345C111.109 71.3909 111.345 71.1447 111.489 70.8062C111.632 70.4677 111.704 70.0061 111.704 69.4112V63.3389H113.795V69.3907C113.795 70.8472 113.395 71.9345 112.606 72.6628C111.817 73.391 110.709 73.75 109.285 73.75C107.86 73.75 106.722 73.3808 105.953 72.6525V72.6628Z" fill="#87C76C"/>
<path d="M117.752 73.1244C116.942 72.7039 116.306 72.0884 115.866 71.2884C115.415 70.4883 115.189 69.5446 115.189 68.4471C115.189 67.3496 115.415 66.4059 115.866 65.5956C116.317 64.7852 116.952 64.1698 117.762 63.7492C118.572 63.3287 119.515 63.1133 120.571 63.1133C121.852 63.1133 122.949 63.421 123.851 64.0262C124.763 64.6314 125.379 65.4827 125.707 66.5803H123.462C122.98 65.6058 122.016 65.1135 120.561 65.1135C119.474 65.1135 118.664 65.3904 118.131 65.9443C117.598 66.4982 117.321 67.3393 117.321 68.4471C117.321 69.5549 117.588 70.3755 118.121 70.9294C118.654 71.473 119.464 71.7499 120.561 71.7499C121.247 71.7499 121.811 71.6474 122.252 71.432C122.693 71.2166 123.052 70.8986 123.328 70.4678V69.3087H119.618V67.288L125.666 67.329V73.6065H123.318V73.0013C123 73.2578 122.601 73.4424 122.119 73.5757C121.627 73.6988 121.104 73.7706 120.55 73.7706C119.484 73.7706 118.551 73.5552 117.742 73.1347L117.752 73.1244Z" fill="#87C76C"/>
<path d="M131.98 63.3389H133.682L138.52 73.5962H136.173L134.912 70.8677H130.709L129.448 73.5962H127.131L131.98 63.3389ZM134 68.8778L132.8 66.293L131.632 68.8778H134Z" fill="#87C76C"/>
<path d="M139.689 63.3389H141.8V71.596H147.438V73.6064H139.689V63.3491V63.3389Z" fill="#87C76C"/>
</g>
<defs>
<clipPath id="clip0_166_1739">
<rect width="152" height="73.7603" fill="white"/>
</clipPath>
</defs>
</svg>
